<?xml version="1.0" encoding="UTF-8" standalone="no"?>
<!DOCTYPE svg PUBLIC "-//W3C//DTD SVG 1.1//EN" "http://www.w3.org/Graphics/SVG/1.1/DTD/svg11.dtd">
<svg width="100%" height="100%" viewBox="0 0 1600 900" version="1.1" xmlns="http://www.w3.org/2000/svg" xmlns:xlink="http://www.w3.org/1999/xlink" xml:space="preserve" xmlns:serif="http://www.serif.com/" style="fill-rule:evenodd;clip-rule:evenodd;stroke-linejoin:round;stroke-miterlimit:2;">
    <g transform="matrix(0.609454,0.792821,-0.792821,0.609454,81.6508,-334.297)">
        <path d="M1050,375.25C1050,328.751 1012.25,291 965.75,291L797.25,291C750.751,291 713,328.751 713,375.25L713,738.75C713,785.249 750.751,823 797.25,823L965.75,823C1012.25,823 1050,785.249 1050,738.75L1050,375.25Z" style="fill:rgb(64,196,244);"/>
        <path d="M1005,301.75C1005,267.669 977.331,240 943.25,240L819.75,240C785.669,240 758,267.669 758,301.75L758,504.25C758,538.331 785.669,566 819.75,566L943.25,566C977.331,566 1005,538.331 1005,504.25L1005,301.75Z" style="fill:rgb(214,148,203);"/>
        <clipPath id="_clip1">
            <path d="M1005,301.75C1005,267.669 977.331,240 943.25,240L819.75,240C785.669,240 758,267.669 758,301.75L758,504.25C758,538.331 785.669,566 819.75,566L943.25,566C977.331,566 1005,538.331 1005,504.25L1005,301.75Z"/>
        </clipPath>
        <g clip-path="url(#_clip1)">
            <g transform="matrix(0.0107142,1.11207,-1.2229,0.011782,1335.8,-568.838)">
                <path d="M784,266C740.951,266 706,317.082 706,380C706,442.918 740.951,494 784,494C771.085,467.4 760.6,425.475 760.6,380C760.6,334.525 771.085,292.6 784,266Z" style="fill:rgb(234,234,234);"/>
            </g>
        </g>
    </g>
</svg>
