<svg width="436" height="163" viewBox="0 0 436 163" fill="none" xmlns="http://www.w3.org/2000/svg">
<path d="M146.664 47.3975C146.664 47.7815 146.44 48.1015 145.992 48.3575C145.608 48.5495 145.128 48.7415 144.552 48.9335C144.04 49.0615 143.528 49.1575 143.016 49.2215C142.504 49.2215 142.12 49.2215 141.864 49.2215C141.16 49.2215 140.424 49.1575 139.656 49.0295C138.952 48.9015 138.344 48.5495 137.832 47.9735C137.384 47.4615 137 47.0135 136.68 46.6295C136.36 46.1815 135.944 45.7335 135.432 45.2855C133.512 43.6855 131.304 42.5975 128.808 42.0215C126.312 41.3815 123.848 40.9655 121.416 40.7735C119.112 40.5815 116.808 40.4855 114.504 40.4855C104.776 40.4855 96.7116 42.6295 90.3114 46.9175C83.9754 51.2055 79.5274 58.2135 76.9674 67.9415C76.5194 69.5418 76.1674 71.1738 75.9114 72.8378C75.6554 74.4378 75.5274 76.0698 75.5274 77.7338C75.5274 81.2538 76.1994 84.1018 77.5434 86.2778C78.9514 88.3898 80.7434 90.0218 82.9194 91.1738C85.1594 92.3258 87.6554 93.0938 90.4074 93.4778C93.2234 93.7978 96.0714 93.9578 98.9516 93.9578C102.152 93.9578 105.288 93.7658 108.36 93.3818C111.048 93.0618 113.672 92.5178 116.232 91.7498C118.856 90.9818 121.32 89.9258 123.624 88.5818C124.328 88.1978 124.968 87.7818 125.544 87.3338C126.12 86.8218 126.728 86.3738 127.368 85.9898C127.88 85.6698 128.392 85.4778 128.904 85.4138C129.416 85.3498 129.96 85.3178 130.536 85.3178C130.792 85.3178 131.176 85.3498 131.688 85.4138C132.264 85.4138 132.84 85.5098 133.416 85.7018C133.992 85.8298 134.504 86.0218 134.952 86.2778C135.4 86.4698 135.624 86.7578 135.624 87.1418C135.624 87.4618 135.432 87.7498 135.048 88.0058C132.616 90.1178 129.896 91.8138 126.888 93.0938C123.88 94.3738 120.776 95.3658 117.576 96.0698C114.376 96.7738 111.112 97.2538 107.784 97.5098C104.456 97.7658 101.256 97.8938 98.1836 97.8938C94.7274 97.8938 91.1434 97.6698 87.4314 97.2218C83.7194 96.7098 80.3274 95.7178 77.2554 94.2458C74.1834 92.7738 71.6554 90.6938 69.6714 88.0058C67.6874 85.3178 66.6954 81.7978 66.6954 77.4458C66.6954 75.3978 66.8874 73.3498 67.2714 71.3018C67.6554 69.1898 68.1674 67.1415 68.8074 65.1575C71.0474 57.9895 74.5034 52.1655 79.1754 47.6855C83.9114 43.2055 89.9594 40.1335 97.3196 38.4695C100.392 37.7655 103.464 37.2535 106.536 36.9335C109.608 36.5495 112.712 36.3575 115.848 36.3575C118.28 36.3575 120.968 36.4855 123.912 36.7415C126.856 36.9975 129.736 37.5095 132.552 38.2775C135.432 39.0455 138.088 40.1335 140.52 41.5415C143.016 42.8855 145 44.6455 146.472 46.8215C146.6 47.0775 146.664 47.2695 146.664 47.3975ZM235.918 91.1738C235.918 91.4298 235.854 91.6218 235.726 91.7498C234.83 93.0938 233.71 94.1818 232.366 95.0138C231.086 95.7818 229.678 96.3578 228.142 96.7418C226.67 97.1258 225.134 97.3818 223.534 97.5098C221.934 97.6378 220.398 97.7018 218.926 97.7018H194.542C193.262 97.7018 192.014 97.5738 190.798 97.3178C189.582 97.0618 188.494 96.6458 187.534 96.0698C186.638 95.4298 185.902 94.5978 185.326 93.5738C184.75 92.5498 184.462 91.3018 184.462 89.8298C184.462 87.5898 184.814 85.3818 185.518 83.2058C186.222 80.9658 186.574 78.7258 186.574 76.4858C186.574 73.9258 185.71 72.1658 183.982 71.2058C182.318 70.1818 180.366 69.6698 178.126 69.6698C174.03 69.6698 170.702 70.7258 168.142 72.8378C165.646 74.8858 163.854 77.8618 162.766 81.7658L158.926 95.5898C158.67 96.4218 158.03 96.9658 157.006 97.2218C155.982 97.4778 155.118 97.6058 154.414 97.6058C154.222 97.6058 153.838 97.5738 153.262 97.5098C152.75 97.4458 152.238 97.3498 151.726 97.2218C151.214 97.0298 150.766 96.8058 150.382 96.5498C150.062 96.2938 149.934 95.9738 149.998 95.5898L165.838 38.2775C166.094 37.4455 166.734 36.9015 167.758 36.6455C168.846 36.3895 169.742 36.2615 170.446 36.2615C170.702 36.2615 171.086 36.2935 171.598 36.3575C172.11 36.4215 172.59 36.5175 173.038 36.6455C173.55 36.7735 173.966 36.9655 174.286 37.2215C174.67 37.4135 174.862 37.7015 174.862 38.0855C174.862 38.0855 174.67 38.7895 174.286 40.1975C173.902 41.5415 173.422 43.2375 172.846 45.2855C172.27 47.3335 171.63 49.5735 170.926 52.0055C170.286 54.4375 169.678 56.7415 169.102 58.9175C168.526 61.0295 168.014 62.8855 167.566 64.4855C167.182 66.0855 166.926 67.0455 166.798 67.3655C170.382 66.2135 173.998 65.6375 177.646 65.6375C178.734 65.6375 179.822 65.7015 180.91 65.8295C181.998 65.9575 183.086 66.1175 184.174 66.3095C185.582 66.5655 186.958 66.9175 188.302 67.3655C189.71 67.7495 190.926 68.3255 191.95 69.0938C193.038 69.7978 193.902 70.7258 194.542 71.8778C195.182 72.9658 195.502 74.3418 195.502 76.0058C195.502 77.1578 195.374 78.2778 195.118 79.3658C194.926 80.4538 194.67 81.5418 194.35 82.6298C194.094 83.7178 193.838 84.8378 193.582 85.9898C193.39 87.0778 193.294 88.1978 193.294 89.3498C193.294 89.7978 193.326 90.2778 193.39 90.7898C193.454 91.2378 193.582 91.6858 193.774 92.1338C193.966 92.5818 194.222 92.9658 194.542 93.2858C194.862 93.5418 195.278 93.6698 195.79 93.6698H219.118C220.782 93.6698 222.254 93.5098 223.534 93.1898C224.814 92.8698 225.998 92.0378 227.086 90.6938C227.598 90.1178 228.206 89.7658 228.91 89.6378C229.678 89.4458 230.414 89.3498 231.118 89.3498C231.374 89.3498 231.758 89.3818 232.27 89.4458C232.846 89.5098 233.39 89.6058 233.902 89.7338C234.414 89.8618 234.862 90.0538 235.246 90.3098C235.694 90.5018 235.918 90.7898 235.918 91.1738ZM261.641 74.2778C261.641 72.6138 260.969 71.4618 259.625 70.8218C258.281 70.1818 256.073 69.8618 253.001 69.8618C251.401 69.8618 249.833 69.9898 248.297 70.2458C246.825 70.4378 245.417 70.8218 244.073 71.3978C242.729 71.9738 241.513 72.7418 240.425 73.7018C239.337 74.6618 238.409 75.9098 237.641 77.4458C237.001 78.6618 236.457 80.0058 236.009 81.4778C235.561 82.9498 235.273 84.3578 235.145 85.7018C236.041 85.3818 237.481 84.9018 239.465 84.2618C241.449 83.6218 243.593 82.9178 245.897 82.1498C248.201 81.3178 250.505 80.4858 252.809 79.6538C255.177 78.8218 257.129 78.0858 258.665 77.4458C259.433 77.1258 260.105 76.6778 260.681 76.1018C261.321 75.4618 261.641 74.8538 261.641 74.2778ZM301.481 91.2698C301.481 91.3978 301.449 91.4938 301.385 91.5578C301.321 91.6218 301.257 91.7178 301.193 91.8458C300.169 93.1898 298.985 94.2778 297.641 95.1098C296.297 95.8778 294.857 96.4538 293.321 96.8378C291.849 97.2218 290.281 97.4778 288.617 97.6058C287.017 97.6698 285.449 97.7018 283.913 97.7018H244.073C242.089 97.7018 240.041 97.6058 237.929 97.4138C235.817 97.1578 233.897 96.6458 232.169 95.8778C230.441 95.1098 229.001 93.9898 227.849 92.5178C226.761 91.0458 226.217 89.0618 226.217 86.5658C226.217 84.5178 226.569 82.4058 227.273 80.2298C228.041 78.0538 229.033 76.1338 230.249 74.4698C231.529 72.7418 233.001 71.3338 234.665 70.2458C236.393 69.0938 238.185 68.2295 240.041 67.6535C241.961 67.0135 243.945 66.5655 245.993 66.3095C248.041 66.0535 250.089 65.9255 252.137 65.9255C253.673 65.9255 255.497 65.9575 257.609 66.0215C259.721 66.0215 261.737 66.2775 263.657 66.7895C265.577 67.2375 267.209 68.0375 268.553 69.1898C269.897 70.3418 270.569 72.0378 270.569 74.2778C270.569 75.2378 270.313 76.0698 269.801 76.7738C269.353 77.4778 268.745 78.0858 267.977 78.5978C267.273 79.1098 266.473 79.5578 265.577 79.9418C264.681 80.3258 263.817 80.6778 262.985 80.9978C258.505 82.7258 253.993 84.3898 249.449 85.9898C244.905 87.5258 240.329 89.0298 235.721 90.5018C236.105 91.2698 236.681 91.8778 237.449 92.3258C238.217 92.7098 239.049 93.0298 239.945 93.2858C240.841 93.4778 241.737 93.6058 242.633 93.6698C243.593 93.6698 244.457 93.6698 245.225 93.6698H284.105C285.897 93.6698 287.433 93.5418 288.713 93.2858C290.057 93.0298 291.369 92.1978 292.649 90.7898C293.161 90.2778 293.769 89.9258 294.473 89.7338C295.177 89.5418 295.881 89.4458 296.585 89.4458C296.841 89.4458 297.225 89.4778 297.737 89.5418C298.313 89.6058 298.857 89.7018 299.369 89.8298C299.945 89.9578 300.425 90.1498 300.809 90.4058C301.257 90.5978 301.481 90.8858 301.481 91.2698ZM378.34 90.8858C378.34 91.0138 378.276 91.2058 378.148 91.4618C377.06 92.9978 375.716 94.1818 374.116 95.0138C372.58 95.8458 370.916 96.4858 369.124 96.9338C367.332 97.3178 365.508 97.5418 363.652 97.6058C361.796 97.6698 360.036 97.7018 358.372 97.7018H344.452C341.636 97.7018 339.012 97.4778 336.58 97.0298C334.212 96.5818 332.132 95.7818 330.34 94.6298C328.548 93.4778 327.14 91.8778 326.116 89.8298C325.156 87.7178 324.676 85.0298 324.676 81.7658C324.676 79.7178 324.836 77.6698 325.156 75.6218C325.54 73.5738 326.052 71.5578 326.692 69.5738H313.252C311.972 73.8618 310.372 77.7978 308.452 81.3818C306.596 84.9018 304.228 88.3898 301.348 91.8458C299.492 94.1498 297.284 95.7178 294.724 96.5498C292.164 97.3178 289.444 97.7018 286.564 97.7018C286.244 97.7018 285.828 97.6698 285.316 97.6058C284.868 97.5418 284.388 97.4458 283.876 97.3178C283.428 97.1898 283.044 96.9978 282.724 96.7418C282.404 96.4858 282.244 96.1338 282.244 95.6858C282.244 95.2378 282.404 94.8858 282.724 94.6298C283.108 94.3738 283.524 94.1818 283.972 94.0538C284.484 93.9258 284.996 93.8298 285.508 93.7658C286.02 93.7018 286.436 93.6698 286.756 93.6698C289.124 93.5418 291.108 92.5818 292.708 90.7898C295.716 87.3338 298.244 83.5898 300.292 79.5578C302.34 75.5258 303.972 71.3338 305.188 66.9815C305.508 65.9575 305.732 64.9335 305.86 63.9095C306.052 62.8855 306.308 61.8615 306.628 60.8375C306.884 59.9415 307.492 59.3655 308.452 59.1095C309.476 58.8535 310.372 58.7255 311.14 58.7255C311.46 58.7255 311.844 58.7575 312.292 58.8215C312.804 58.8855 313.284 58.9815 313.732 59.1095C314.244 59.2375 314.66 59.4615 314.98 59.7815C315.364 60.0375 315.556 60.3895 315.556 60.8375C315.556 60.9015 315.492 61.1575 315.364 61.6055C315.3 62.0535 315.204 62.5655 315.076 63.1415C314.948 63.6535 314.82 64.1335 314.692 64.5815C314.564 65.0295 314.468 65.3495 314.404 65.5415H331.876C332.196 65.5415 332.58 65.5735 333.028 65.6375C333.54 65.7015 334.02 65.7975 334.468 65.9255C334.98 66.0535 335.396 66.2775 335.716 66.5975C336.1 66.8535 336.292 67.1735 336.292 67.5575C336.292 67.8135 336.26 68.0055 336.196 68.1335C335.428 70.4378 334.788 72.8058 334.276 75.2378C333.764 77.6698 333.508 80.1018 333.508 82.5338C333.508 83.7498 333.732 85.0298 334.18 86.3738C334.692 87.6538 335.396 88.8378 336.292 89.9258C337.188 91.0138 338.244 91.9098 339.46 92.6138C340.676 93.3178 341.988 93.6698 343.396 93.6698H360.964C362.692 93.6698 364.228 93.4778 365.572 93.0938C366.98 92.6458 368.292 91.7498 369.508 90.4058C370.02 89.8938 370.628 89.5418 371.332 89.3498C372.1 89.1578 372.836 89.0618 373.54 89.0618C373.796 89.0618 374.18 89.0938 374.692 89.1578C375.204 89.2218 375.716 89.3178 376.228 89.4458C376.804 89.5738 377.284 89.7658 377.668 90.0218C378.116 90.2138 378.34 90.5018 378.34 90.8858ZM451.951 91.2698C451.951 91.3978 451.887 91.5898 451.759 91.8458C450.095 94.1498 447.855 95.7178 445.039 96.5498C442.223 97.3178 439.471 97.7018 436.783 97.7018H411.247C410.415 97.7018 409.583 97.7018 408.751 97.7018C407.919 97.6378 407.087 97.5418 406.255 97.4138C405.359 100.486 404.431 103.494 403.471 106.438C402.575 109.446 401.615 112.486 400.591 115.558C399.439 119.014 398.255 122.502 397.039 126.022C395.823 129.606 394.479 133.094 393.007 136.486C391.535 139.942 389.871 143.27 388.015 146.47C386.159 149.734 383.983 152.742 381.487 155.494C379.887 157.222 377.999 158.79 375.823 160.198C373.647 161.67 371.343 162.406 368.911 162.406C366.287 162.406 364.047 161.99 362.191 161.158C360.399 160.39 358.959 159.27 357.871 157.798C356.719 156.39 355.919 154.662 355.471 152.614C354.959 150.63 354.703 148.422 354.703 145.99C354.703 141.958 355.535 138.182 357.199 134.662C358.863 131.142 361.007 127.878 363.631 124.87C366.255 121.926 369.199 119.238 372.463 116.806C375.727 114.438 378.959 112.294 382.159 110.374C383.375 109.67 384.655 109.318 385.999 109.318C386.319 109.318 386.735 109.35 387.247 109.414C387.759 109.478 388.239 109.574 388.687 109.702C389.199 109.894 389.615 110.118 389.935 110.374C390.319 110.694 390.511 111.078 390.511 111.526C390.511 111.846 390.319 112.134 389.935 112.39C388.719 113.158 387.503 113.926 386.287 114.694C385.071 115.462 383.855 116.262 382.639 117.094C380.271 118.822 377.935 120.678 375.631 122.662C373.327 124.71 371.279 126.918 369.487 129.286C367.759 131.654 366.351 134.214 365.263 136.966C364.175 139.718 363.631 142.662 363.631 145.798C363.631 146.822 363.663 147.878 363.727 148.966C363.855 150.118 364.047 151.238 364.303 152.326C364.559 153.414 364.911 154.438 365.359 155.398C365.871 156.358 366.511 157.19 367.279 157.894C367.407 157.958 367.535 158.118 367.663 158.374H367.759C367.887 158.374 368.143 158.278 368.527 158.086C368.911 157.894 369.167 157.734 369.295 157.606C371.471 156.198 373.551 154.022 375.535 151.078C377.583 148.198 379.535 144.902 381.391 141.19C383.247 137.542 385.007 133.606 386.671 129.382C388.335 125.158 389.839 120.998 391.183 116.902C392.591 112.87 393.839 108.998 394.927 105.286C396.079 101.638 397.007 98.5338 397.711 95.9738C395.919 96.6778 394.063 97.1578 392.143 97.4138C390.287 97.6698 388.399 97.7978 386.479 97.7978C384.687 97.7978 382.735 97.6698 380.623 97.4138C378.511 97.0938 376.559 96.5498 374.767 95.7818C372.975 94.9498 371.471 93.8298 370.255 92.4218C369.103 90.9498 368.527 89.0618 368.527 86.7578C368.527 86.1178 368.719 84.9338 369.103 83.2058C369.487 81.4138 369.935 79.5258 370.447 77.5418C371.023 75.4938 371.567 73.5738 372.079 71.7818C372.591 69.9258 372.975 68.6455 373.231 67.9415C373.551 67.0455 374.191 66.5015 375.151 66.3095C376.111 66.0535 376.975 65.9255 377.743 65.9255C377.935 65.9255 378.287 65.9575 378.799 66.0215C379.375 66.0855 379.919 66.1815 380.431 66.3095C381.007 66.4375 381.455 66.6615 381.775 66.9815C382.159 67.2375 382.287 67.5575 382.159 67.9415L378.415 81.3818C378.095 82.3418 377.839 83.3018 377.647 84.2618C377.519 85.2218 377.455 86.2138 377.455 87.2378C377.455 88.6458 377.647 89.7658 378.031 90.5978C378.479 91.4298 379.055 92.0698 379.759 92.5178C380.527 92.9658 381.423 93.2858 382.447 93.4778C383.471 93.6058 384.591 93.6698 385.807 93.6698C389.199 93.6698 392.143 92.9338 394.639 91.4618C397.199 89.9898 399.119 87.6218 400.399 84.3578C401.231 82.1818 401.935 79.9738 402.511 77.7338C403.087 75.4938 403.663 73.2538 404.239 71.0138C404.495 70.1178 404.687 69.2538 404.815 68.4215C405.007 67.5255 405.263 66.6295 405.583 65.7335C405.903 64.8375 406.543 64.2935 407.503 64.1015C408.463 63.8455 409.327 63.7175 410.095 63.7175C410.415 63.7175 410.799 63.7495 411.247 63.8135C411.759 63.8135 412.239 63.9095 412.687 64.1015C413.199 64.2295 413.615 64.4215 413.935 64.6775C414.319 64.9335 414.511 65.2855 414.511 65.7335C414.511 65.9895 414.287 67.0135 413.839 68.8058C413.455 70.5338 412.975 72.4538 412.399 74.5658C411.887 76.6138 411.375 78.5978 410.863 80.5178C410.351 82.4378 409.999 83.7178 409.807 84.3578C409.615 85.1258 409.455 85.9258 409.327 86.7578C409.199 87.5258 409.135 88.3258 409.135 89.1578C409.135 89.6058 409.199 90.0858 409.327 90.5978C409.455 91.1098 409.679 91.5898 409.999 92.0378C410.383 92.4858 410.831 92.8698 411.343 93.1898C411.919 93.5098 412.591 93.6698 413.359 93.6698H435.439C437.103 93.6698 438.511 93.5098 439.663 93.1898C440.879 92.8698 442.031 92.0698 443.119 90.7898C443.631 90.2138 444.239 89.8618 444.943 89.7338C445.711 89.5418 446.447 89.4458 447.151 89.4458C447.407 89.4458 447.791 89.4778 448.303 89.5418C448.815 89.6058 449.327 89.7018 449.839 89.8298C450.415 89.9578 450.895 90.1498 451.279 90.4058C451.727 90.5978 451.951 90.8858 451.951 91.2698Z" fill="#FABF3F"/>
<path d="M22.8247 54.4661C18.3751 54.4661 14.4199 53.3949 10.9591 51.2526C7.49833 49.1102 4.80665 46.1163 2.88399 42.271C0.96133 38.3707 0 33.9486 0 29.0046C0 23.6212 1.18106 18.7321 3.54319 14.3375C5.96024 9.8879 9.22873 6.3997 13.3487 3.8727C17.5236 1.2909 22.1105 0 27.1095 0C31.6689 0 35.7065 1.0711 39.2222 3.2135C42.7379 5.3559 45.4846 8.3498 47.4622 12.1951C49.4398 16.0404 50.4286 20.4351 50.4286 25.3791C50.4286 30.7625 49.1926 35.679 46.7206 40.1286C44.3035 44.5782 40.9801 48.0939 36.7502 50.6758C32.5753 53.2027 27.9335 54.4661 22.8247 54.4661ZM25.3791 50.2638C28.8399 50.2638 31.9161 49.3574 34.6078 47.5446C37.2996 45.7318 39.387 43.2048 40.8702 39.9638C42.3534 36.7227 43.095 33.0148 43.095 28.8398C43.095 24.1705 42.2985 20.0505 40.7054 16.4799C39.1123 12.8543 36.8876 10.0252 34.031 7.9927C31.2294 5.9602 27.9884 4.9439 24.3079 4.9439C20.957 4.9439 17.9631 5.8503 15.3263 7.6631C12.7445 9.4759 10.7119 12.0028 9.22873 15.2439C7.80053 18.4849 7.08633 22.1929 7.08633 26.3678C7.08633 31.0372 7.85543 35.1846 9.39353 38.8102C10.9317 42.3809 13.0741 45.1824 15.8207 47.215C18.6223 49.2475 21.8084 50.2638 25.3791 50.2638ZM100.724 56.7733C95.9447 49.3574 91.2754 42.2985 86.716 35.5966C82.2115 28.8398 78.5035 23.4015 75.592 19.2815C72.6806 15.1066 70.8403 12.4698 70.0712 11.3711H69.6592L69.2472 46.5558C69.2472 47.7643 69.4395 48.6158 69.824 49.1102C70.2086 49.6046 70.8678 49.8518 71.8016 49.8518L76.004 49.7694L76.1688 50.099L75.4272 53.8069C74.8229 53.752 73.587 53.6696 71.7192 53.5597C69.8515 53.5048 68.176 53.4773 66.6928 53.4773C65.3195 53.4773 63.8089 53.5597 62.1609 53.7245C60.5678 53.9443 59.5241 54.0816 59.0297 54.1365L59.4417 50.3462C61.1446 50.1264 62.4081 49.632 63.2321 48.863C64.0561 48.039 64.4955 46.803 64.5505 45.155L65.6217 9.1463C65.6217 7.4434 65.0998 6.2349 64.0561 5.5207C63.0673 4.8066 61.1995 4.3122 58.4529 4.0375L58.2057 3.6255L58.8649 0.576799C59.3593 0.631699 60.4305 0.7141 62.0785 0.8239C63.7265 0.9338 65.0174 0.988699 65.9513 0.988699C67.1048 0.988699 68.231 0.961301 69.3296 0.906401C70.4283 0.796501 71.1424 0.714101 71.472 0.659101C75.5371 6.9765 79.6021 13.1564 83.6672 19.1991C87.7872 25.2417 91.2205 30.2132 93.9671 34.1134C96.7136 38.0137 98.4446 40.4857 99.1586 41.5294H99.5706V8.1575C99.5706 5.7954 98.6636 4.6143 96.8516 4.6143L93.7199 4.6967L93.5551 4.3671L94.2967 0.659101C94.8461 0.714101 95.8898 0.796501 97.4276 0.906401C98.9656 0.961301 100.532 0.988699 102.125 0.988699C103.553 0.988699 105.119 0.906299 106.822 0.741499C108.58 0.521799 109.733 0.384499 110.283 0.329599L109.871 4.1199C107.948 4.3946 106.547 4.9439 105.668 5.7679C104.789 6.537 104.322 7.7181 104.268 9.3111L103.114 55.6197L100.724 56.7733ZM140.338 54.4661C135.504 54.4661 131.274 53.4224 127.648 51.335C124.023 49.2475 121.221 46.3086 119.244 42.5182C117.266 38.6729 116.277 34.1684 116.277 29.0046C116.277 23.3465 117.486 18.3201 119.903 13.9255C122.32 9.5308 125.726 6.125 130.12 3.7079C134.515 1.2359 139.541 0 145.2 0C147.232 0 149.429 0.1648 151.792 0.4944C154.154 0.769 156.186 1.0711 157.889 1.4007C159.592 1.6754 160.691 1.8677 161.185 1.9775L161.515 2.4719C161.405 2.8015 161.213 3.5981 160.938 4.8615C160.663 6.125 160.361 7.773 160.031 9.8055C159.757 11.838 159.537 13.9804 159.372 16.2327L155.5 16.5623C155.554 16.2876 155.609 15.7658 155.664 14.9967C155.719 14.1727 155.747 13.2114 155.747 12.1127C155.747 9.5858 154.758 7.7455 152.78 6.5919C150.858 5.4383 147.699 4.8615 143.304 4.8615C137.042 4.8615 132.153 6.7567 128.637 10.5471C125.176 14.2826 123.446 19.5561 123.446 26.3678C123.446 31.147 124.215 35.3494 125.753 38.975C127.291 42.6006 129.489 45.4022 132.345 47.3798C135.202 49.3574 138.498 50.3462 142.233 50.3462C144.211 50.3462 146.024 50.1264 147.672 49.687C149.32 49.1926 150.693 48.6707 151.792 48.1214C152.945 47.572 153.522 47.2699 153.522 47.215V37.1622C153.522 35.2945 153.22 34.086 152.616 33.5366C152.066 32.9873 150.858 32.7126 148.99 32.7126H143.304L143.14 32.383L143.881 28.263C144.54 28.318 145.941 28.4004 148.084 28.5102C150.226 28.5652 152.313 28.5926 154.346 28.5926C155.829 28.5926 157.285 28.5377 158.713 28.4278C160.141 28.318 161.048 28.2356 161.432 28.1806L161.762 29.9934C160.773 30.8174 160.086 32.1358 159.702 33.9486C159.372 35.7065 159.207 38.6179 159.207 42.683C159.207 45.8691 159.4 48.2862 159.784 49.9342L159.29 50.6758C159.29 50.7307 158.301 51.1152 156.323 51.8293C154.401 52.4885 152.011 53.0928 149.155 53.6421C146.353 54.1915 143.414 54.4661 140.338 54.4661ZM174.039 50.511C176.181 50.1814 177.637 49.5496 178.406 48.6158C179.23 47.627 179.642 45.9515 179.642 43.5894L179.724 8.9815C179.724 7.2237 179.505 6.0426 179.065 5.4383C178.681 4.8341 177.884 4.5319 176.676 4.5319C176.126 4.5319 175.577 4.5594 175.028 4.6143C174.478 4.6693 174.094 4.6967 173.874 4.6967L173.709 4.3671L174.286 0.741499C174.945 0.796499 176.181 0.851401 177.994 0.906401C179.807 0.961301 181.647 0.988699 183.515 0.988699C184.998 0.988699 186.673 0.906299 188.541 0.741499C190.464 0.521799 191.727 0.357 192.332 0.2472L192.002 3.9551C190.189 4.1749 188.926 4.5319 188.212 5.0263C187.552 5.5207 187.14 6.0975 186.976 6.7567C186.866 7.4159 186.728 9.0365 186.564 11.6183C186.234 16.2876 185.987 21.6161 185.822 27.6038C185.657 33.5916 185.575 38.8651 185.575 43.4246C185.575 45.4022 185.74 46.8304 186.069 47.7094C186.399 48.5334 187.003 49.0827 187.882 49.3574C188.816 49.632 190.381 49.7694 192.579 49.7694C195.93 49.7694 198.374 49.4947 199.912 48.9454C201.505 48.396 202.686 47.3248 203.455 45.7318C204.279 44.1387 205.021 41.5843 205.68 38.0686L209.306 37.6566L209.553 38.0686C209.388 38.9475 209.031 40.9251 208.482 44.0014C207.987 47.0776 207.548 50.3187 207.163 53.7245L206.751 54.2189C205.158 54.1091 201.862 53.9443 196.863 53.7245C191.92 53.5597 187.827 53.4773 184.586 53.4773C182.004 53.4773 179.642 53.5872 177.5 53.8069C175.412 54.0267 174.094 54.1915 173.544 54.3013L174.039 50.511ZM251.932 39.7166C250.998 44.1662 250.256 48.7806 249.707 53.5597L249.295 54.0541C237.759 53.6696 229.436 53.4773 224.328 53.4773C220.263 53.4773 216.445 53.752 212.874 54.3013L213.369 50.511C215.841 50.1814 217.516 49.5496 218.395 48.6158C219.329 47.627 219.796 45.9515 219.796 43.5894L219.878 8.9815C219.878 7.2237 219.658 6.0426 219.219 5.4383C218.834 4.8341 218.038 4.5319 216.829 4.5319L214.028 4.6967L213.863 4.3671L214.44 0.741499C220.043 0.906299 223.861 0.988699 225.893 0.988699C232.43 0.988699 237.512 0.9338 241.137 0.8239C244.763 0.6591 247.921 0.3845 250.613 0L250.86 0.4944C249.872 4.8341 249.24 9.3935 248.965 14.1727L245.01 14.5023L245.175 10.9591C245.175 9.0365 244.928 7.7181 244.433 7.0039C243.939 6.2349 242.868 5.7405 241.22 5.5207C239.572 5.2461 236.688 5.1087 232.568 5.1087C230.645 5.1087 229.327 5.1637 228.612 5.2735C227.898 5.3834 227.431 5.6581 227.212 6.0975C226.992 6.4821 226.855 7.2237 226.8 8.3223L226.14 24.3079L234.628 24.3903C236.77 24.3903 240.121 24.0881 244.68 23.4839L245.01 23.8959L243.856 28.7574C237.759 28.5926 233.914 28.5102 232.32 28.5102C230.508 28.5102 228.393 28.7025 225.976 29.087L225.646 44.8254C225.646 46.4184 225.783 47.5446 226.058 48.2038C226.333 48.808 226.882 49.22 227.706 49.4398C228.585 49.6595 230.068 49.7694 232.156 49.7694C236.77 49.7694 240.039 49.5496 241.961 49.1102C243.939 48.6707 245.34 47.7918 246.164 46.4734C246.988 45.155 247.619 42.9027 248.059 39.7166L251.684 39.3046L251.932 39.7166ZM274.824 54.4661C272.517 54.4661 270.402 54.2464 268.479 53.8069C266.556 53.4224 264.963 52.9829 263.7 52.4885C262.491 51.9941 261.887 51.7195 261.887 51.6646L261.475 50.8406C261.53 50.511 261.64 49.687 261.805 48.3686C261.97 47.0502 262.107 45.3472 262.217 43.2598C262.382 41.1174 262.464 38.8651 262.464 36.503L266.172 36.091C266.172 40.211 266.447 43.2598 266.996 45.2374C267.545 47.215 268.562 48.5883 270.045 49.3574C271.528 50.0715 273.808 50.4286 276.884 50.4286C280.345 50.4286 283.119 49.632 285.206 48.039C287.294 46.391 288.337 44.1662 288.337 41.3646C288.337 39.7166 287.761 38.2334 286.607 36.915C285.508 35.5966 284.19 34.4705 282.652 33.5366C281.114 32.6028 278.834 31.3393 275.813 29.7462C272.956 28.263 270.622 26.9172 268.809 25.7087C266.996 24.4452 265.458 22.962 264.194 21.2591C262.986 19.5561 262.382 17.5785 262.382 15.3263C262.382 12.4698 263.206 9.8879 264.854 7.5807C266.556 5.2186 268.836 3.3783 271.693 2.0599C274.604 0.6866 277.818 0 281.333 0C283.531 0 285.563 0.1648 287.431 0.4944C289.299 0.769 290.782 1.0711 291.881 1.4007C292.979 1.7303 293.666 1.9501 293.941 2.0599L294.188 2.5543C294.133 2.8839 293.996 3.653 293.776 4.8615C293.556 6.0701 293.309 7.7455 293.034 9.8879C292.76 12.0303 292.54 14.2276 292.375 16.4799L289.161 16.8095L288.667 16.3975C288.722 16.1778 288.777 15.6834 288.832 14.9143C288.887 14.0903 288.914 13.1564 288.914 12.1127C288.914 9.2013 288.2 7.1962 286.772 6.0975C285.344 4.9989 282.789 4.4495 279.109 4.4495C276.087 4.4495 273.588 5.2186 271.61 6.7567C269.688 8.2399 268.726 10.1076 268.726 12.3599C268.726 14.5572 269.66 16.4799 271.528 18.1279C273.451 19.7209 276.252 21.4788 279.933 23.4015C283.503 25.2143 286.223 26.7249 288.09 27.9334C289.958 29.087 291.606 30.5428 293.034 32.3006C294.462 34.0585 295.177 36.091 295.177 38.3982C295.177 41.4745 294.298 44.2486 292.54 46.7206C290.837 49.1376 288.447 51.0328 285.371 52.4061C282.295 53.7795 278.779 54.4661 274.824 54.4661Z" fill="black"/>
<path d="M147.136 47.3418C147.136 47.7258 146.912 48.0458 146.464 48.3018C146.08 48.4938 145.6 48.6858 145.024 48.8778C144.512 49.0058 144 49.1018 143.488 49.1658C142.976 49.1658 142.592 49.1658 142.336 49.1658C141.632 49.1658 140.896 49.1018 140.128 48.9738C139.424 48.8458 138.816 48.4938 138.304 47.9178C137.856 47.4058 137.472 46.9578 137.152 46.5738C136.832 46.1258 136.416 45.6778 135.904 45.2298C133.984 43.6298 131.776 42.5418 129.28 41.9658C126.784 41.3258 124.32 40.9098 121.888 40.7178C119.584 40.5258 117.28 40.4298 114.976 40.4298C105.248 40.4298 97.1836 42.5738 90.7836 46.8618C84.4476 51.1498 79.9996 58.1578 77.4396 67.8858C76.9916 69.4858 76.6396 71.1178 76.3836 72.7818C76.1276 74.3818 75.9996 76.0138 75.9996 77.6778C75.9996 81.1978 76.6716 84.0458 78.0156 86.2218C79.4236 88.3338 81.2156 89.9658 83.3916 91.1178C85.6316 92.2698 88.1276 93.0378 90.8796 93.4218C93.6956 93.7418 96.5436 93.9018 99.4236 93.9018C102.624 93.9018 105.76 93.7098 108.832 93.3258C111.52 93.0058 114.144 92.4618 116.704 91.6938C119.328 90.9258 121.792 89.8698 124.096 88.5258C124.8 88.1418 125.44 87.7258 126.016 87.2778C126.592 86.7658 127.2 86.3178 127.84 85.9338C128.352 85.6138 128.864 85.4218 129.376 85.3578C129.888 85.2938 130.432 85.2618 131.008 85.2618C131.264 85.2618 131.648 85.2938 132.16 85.3578C132.736 85.3578 133.312 85.4538 133.888 85.6458C134.464 85.7738 134.976 85.9658 135.424 86.2218C135.872 86.4138 136.096 86.7018 136.096 87.0858C136.096 87.4058 135.904 87.6938 135.52 87.9498C133.088 90.0618 130.368 91.7578 127.36 93.0378C124.352 94.3178 121.248 95.3098 118.048 96.0138C114.848 96.7178 111.584 97.1978 108.256 97.4538C104.928 97.7098 101.728 97.8378 98.6556 97.8378C95.1996 97.8378 91.6156 97.6138 87.9036 97.1658C84.1916 96.6538 80.7996 95.6618 77.7276 94.1898C74.6556 92.7178 72.1276 90.6378 70.1436 87.9498C68.1596 85.2618 67.1676 81.7418 67.1676 77.3898C67.1676 75.3418 67.3596 73.2938 67.7436 71.2458C68.1276 69.1338 68.6396 67.0858 69.2796 65.1018C71.5196 57.9338 74.9756 52.1098 79.6476 47.6298C84.3836 43.1498 90.4316 40.0778 97.7916 38.4138C100.864 37.7098 103.936 37.1978 107.008 36.8778C110.08 36.4938 113.184 36.3018 116.32 36.3018C118.752 36.3018 121.44 36.4298 124.384 36.6858C127.328 36.9418 130.208 37.4538 133.024 38.2218C135.904 38.9898 138.56 40.0778 140.992 41.4858C143.488 42.8298 145.472 44.5898 146.944 46.7658C147.072 47.0218 147.136 47.2138 147.136 47.3418Z" fill="#FABF3F"/>
<path d="M140.645 54.6346C135.811 54.6346 131.581 53.5909 127.955 51.5034C124.33 49.4159 121.528 46.477 119.55 42.6866C117.573 38.8413 116.584 34.3368 116.584 29.1731C116.584 23.515 117.793 18.4886 120.21 14.094C122.627 9.6993 126.032 6.29349 130.427 3.87639C134.822 1.40439 139.848 0.168396 145.506 0.168396C147.539 0.168396 149.736 0.333194 152.098 0.662794C154.46 0.937494 156.493 1.2396 158.196 1.5692C159.899 1.8439 160.997 2.03609 161.492 2.14599L161.821 2.64039C161.712 2.96999 161.519 3.7665 161.245 5.03C160.97 6.2935 160.668 7.9414 160.338 9.974C160.064 12.0065 159.844 14.1489 159.679 16.4011L155.806 16.7307C155.861 16.4561 155.916 15.9342 155.971 15.1652C156.026 14.3412 156.053 13.3798 156.053 12.2812C156.053 9.75419 155.065 7.914 153.087 6.7604C151.164 5.6068 148.006 5.03 143.611 5.03C137.349 5.03 132.46 6.9252 128.944 10.7156C125.483 14.451 123.753 19.7246 123.753 26.5363C123.753 31.3155 124.522 35.5179 126.06 39.1435C127.598 42.769 129.795 45.5706 132.652 47.5482C135.508 49.5258 138.804 50.5146 142.54 50.5146C144.517 50.5146 146.33 50.2949 147.978 49.8554C149.626 49.361 151 48.8392 152.098 48.2898C153.252 47.7405 153.829 47.4384 153.829 47.3834V37.3307C153.829 35.4629 153.527 34.2544 152.922 33.7051C152.373 33.1557 151.164 32.8811 149.297 32.8811H143.611L143.446 32.5515L144.188 28.4315C144.847 28.4864 146.248 28.5688 148.39 28.6787C150.533 28.7336 152.62 28.7611 154.653 28.7611C156.136 28.7611 157.592 28.7062 159.02 28.5963C160.448 28.4864 161.354 28.404 161.739 28.3491L162.069 30.1619C161.08 30.9859 160.393 32.3043 160.009 34.1171C159.679 35.8749 159.514 38.7864 159.514 42.8514C159.514 46.0376 159.706 48.4546 160.091 50.1026L159.597 50.8442C159.597 50.8991 158.608 51.2837 156.63 51.9978C154.708 52.657 152.318 53.2613 149.461 53.8106C146.66 54.3599 143.721 54.6346 140.645 54.6346Z" fill="black"/>
</svg>
